<svg width="56" height="55" viewBox="0 0 56 55" fill="none" xmlns="http://www.w3.org/2000/svg">
<path d="M44.3333 50.4168H11.6667C9.08934 50.4168 7 48.3648 7 45.8335V13.7502C7 11.2189 9.08934 9.16683 11.6667 9.16683H16.3333V4.5835H21V9.16683H35V4.5835H39.6667V9.16683H44.3333C46.9107 9.16683 49 11.2189 49 13.7502V45.8335C49 48.3648 46.9107 50.4168 44.3333 50.4168ZM11.6667 22.9168V45.8335H44.3333V22.9168H11.6667ZM11.6667 13.7502V18.3335H44.3333V13.7502H11.6667ZM30.3333 41.2502H25.6667V36.6668H21V32.0835H25.6667V27.5002H30.3333V32.0835H35V36.6668H30.3333V41.2502Z" fill="#2E3A59"/>
</svg>
