<svg width="55" height="56" viewBox="0 0 55 56" fill="none" xmlns="http://www.w3.org/2000/svg">
<path d="M43.5417 51.3337H11.4583C8.92703 51.3337 6.875 49.2443 6.875 46.667V14.0003C6.875 11.423 8.92703 9.33366 11.4583 9.33366H16.0417V4.66699H20.625V9.33366H34.375V4.66699H38.9583V9.33366H43.5417C46.073 9.33366 48.125 11.423 48.125 14.0003V46.667C48.125 49.2443 46.073 51.3337 43.5417 51.3337ZM11.4583 23.3337V46.667H43.5417V23.3337H11.4583ZM11.4583 14.0003V18.667H43.5417V14.0003H11.4583ZM22.2429 43.65L19.0048 40.3507L24.2596 35.0003L19.0048 29.65L22.2452 26.3507L27.5 31.701L32.7548 26.353L35.9952 29.6523L30.7404 35.0003L35.9952 40.3507L32.7571 43.6477L27.5 38.2997L22.2452 43.65H22.2429Z" fill="#2E3A59"/>
</svg>
