<svg width="55" height="55" viewBox="0 0 55 55" fill="none" xmlns="http://www.w3.org/2000/svg">
<path d="M43.5417 50.4168H11.4583C8.92703 50.4168 6.875 48.3648 6.875 45.8335V13.7502C6.875 11.2189 8.92703 9.16683 11.4583 9.16683H16.0417V4.5835H20.625V9.16683H34.375V4.5835H38.9583V9.16683H43.5417C46.073 9.16683 48.125 11.2189 48.125 13.7502V45.8335C48.125 48.3648 46.073 50.4168 43.5417 50.4168ZM11.4583 22.9168V45.8335H43.5417V22.9168H11.4583ZM11.4583 13.7502V18.3335H43.5417V13.7502H11.4583ZM22.4583 43.5418H18.3333V39.4168L27.9583 29.8147L32.0833 33.9397L22.4583 43.5418ZM33.5156 32.5006L29.3906 28.3756L32.5417 25.2383L36.6667 29.3633L33.5271 32.5029L33.5156 32.5006Z" fill="#2E3A59"/>
</svg>
